<svg xmlns="http://www.w3.org/2000/svg" width="96" height="96" fill="none" viewBox="0 0 96 96" id="image-add"><circle cx="35" cy="31" r="6" stroke="#000" stroke-width="5"></circle><path stroke="#000" stroke-linecap="round" stroke-width="5" d="M68 16L86 16M77 7L77 25M52.5 9H24C15.7157 9 9 15.7157 9 24V71C9 79.2843 15.7157 86 24 86H71C79.2843 86 86 79.2843 86 71V52.5 49.3137C86 47.192 85.1571 45.1571 83.6569 43.6569L79.182 39.182C77.4246 37.4246 74.5754 37.4246 72.818 39.182L51.682 60.318C49.9246 62.0754 47.0754 62.0754 45.318 60.318L39.682 54.682C37.9246 52.9246 35.0754 52.9246 33.318 54.682L11 77"></path></svg>