<svg xmlns="http://www.w3.org/2000/svg" enable-background="new 0 0 16 16" viewBox="0 0 16 16" id="send"><g display="none"><polyline fill="none" stroke="#000" stroke-linecap="round" stroke-linejoin="round" stroke-miterlimit="10" points="11.5 10.5 9.5 15.5 6.5 9.5 .5 6.5 15.5 .5 12.2 8.8"></polyline><polyline fill="none" stroke="#000" stroke-linecap="round" stroke-linejoin="round" stroke-miterlimit="10" points="5.5 9 5.5 12.5 7.5 11.5"></polyline><line x1="6.5" x2="15" y1="9.5" y2="1" fill="none" stroke="#000" stroke-linecap="round" stroke-linejoin="round" stroke-miterlimit="10"></line></g><path d="M15.9,0.1C15.7,0,15.5,0,15.3,0l-15,6C0.1,6.1,0,6.3,0,6.5c0,0.2,0.1,0.4,0.3,0.5L5,9.3v3.2
		c0,0.2,0.1,0.3,0.2,0.4C5.3,13,5.4,13,5.5,13c0.1,0,0.2,0,0.2-0.1l1.6-0.8l1.8,3.6C9.1,15.9,9.3,16,9.5,16c0,0,0,0,0,0
		c0.2,0,0.4-0.1,0.4-0.3l2-5c0.1-0.3,0-0.5-0.3-0.6c-0.3-0.1-0.5,0-0.6,0.3l-1.6,4L7.1,9.6l7-7l-2.4,6c-0.1,0.3,0,0.5,0.3,0.6
		c0.3,0.1,0.5,0,0.6-0.3L16,0.7C16,0.5,16,0.3,15.9,0.1z M13.4,1.9l-7,7L1.7,6.6L13.4,1.9z M6,11.7V9.8l0.1,0.1l0.7,1.4L6,11.7z" display="none"></path><g><polygon fill="#e4f5f7" points="14.5 2.5 14.5 2 13.5 2 13.5 2.9 2.3 7.4 6.5 9.5 9.5 15.5 14.7 2.4"></polygon><polyline fill="#bfdadd" points="5.5 9 5.5 12.5 7.5 11.5"></polyline><path fill="#3e3643" d="M15.9,0.1C15.7,0,15.5,0,15.3,0l-15,6C0.1,6.1,0,6.3,0,6.5c0,0.2,0.1,0.4,0.3,0.5L5,9.3v3.2
			c0,0.2,0.1,0.3,0.2,0.4C5.3,13,5.4,13,5.5,13c0.1,0,0.2,0,0.2-0.1l1.6-0.8l1.8,3.6C9.1,15.9,9.3,16,9.5,16c0,0,0,0,0,0
			c0.2,0,0.4-0.1,0.4-0.3l2-5c0.1-0.3,0-0.5-0.3-0.6c-0.3-0.1-0.5,0-0.6,0.3l-1.6,4L7.1,9.6l7-7l-2.4,6c-0.1,0.3,0,0.5,0.3,0.6
			c0.3,0.1,0.5,0,0.6-0.3L16,0.7C16,0.5,16,0.3,15.9,0.1z M13.4,1.9l-7,7L1.7,6.6L13.4,1.9z M6,11.7V9.8l0.1,0.1l0.7,1.4L6,11.7z"></path></g></svg>