<svg xmlns="http://www.w3.org/2000/svg" enable-background="new 0 0 32 32" viewBox="0 0 32 32" id="moon"><path d="M14.02002,1.15997c-0.36005-0.51996-0.98999-0.76996-1.60004-0.62C5.40002,2.26996,0.5,8.53998,0.5,15.78998C0.5,24.45001,7.54999,31.5,16.21002,31.5c7.25,0,13.51996-4.90002,15.25-11.92004c0.14996-0.60999-0.10004-1.23999-0.62-1.59998C30.33002,17.63,29.64001,17.64001,29.13,18c-1.84998,1.31-4.02002,2.01001-6.28003,2.01001c-5.98999,0-10.85999-4.87-10.85999-10.86005C11.98999,6.89001,12.69,4.71997,14,2.87C14.35999,2.35999,14.37,1.66998,14.02002,1.15997z"></path></svg>